<svg viewBox="0 0 34 34" version="1.1" xmlns="http://www.w3.org/2000/svg" xmlns:xlink="http://www.w3.org/1999/xlink">
    <defs>
        <radialGradient cx="50%" cy="0%" fx="50%" fy="0%" r="100%" id="radialGradient-1">
            <stop stop-color="#000000" offset="0%"></stop>
            <stop stop-color="#1A1A1A" offset="100%"></stop>
        </radialGradient>
    </defs>
    <g id="video-seeking-everywhere" stroke="none" stroke-width="1" fill="none" fill-rule="evenodd">
        <rect id="Rectangle" fill="url(#radialGradient-1)" fill-rule="nonzero" x="0" y="0" width="34" height="34" rx="10"></rect>
        <g id="Group" transform="translate(7.000000, 4.500000)">
            <path d="M17.9992616,7.49804242 C19.2555293,9.1696987 20,11.2479091 20,13.5 C20,19.0228475 15.5228475,23.5 10,23.5 C4.4771525,23.5 0,19.0228475 0,13.5 C0,7.9771525 4.4771525,3.5 10,3.5 L12,3.5" id="Path" stroke="#00BFFF" stroke-width="2" transform="translate(10.000000, 13.500000) scale(-1, 1) translate(-10.000000, -13.500000) "></path>
            <polyline id="Path" stroke="#00BFFF" stroke-width="2" points="11.5 0 8 3.42749023 11.5 7"></polyline>
            <polyline id="Path" stroke="#00BFFF" stroke-width="2" points="7 0 3.5 3.5 7 7"></polyline>
            <g id="1s" transform="translate(6.037417, 10.192000)" fill="#FFFFFF" fill-rule="nonzero">
                <path d="M0,5.808 L3.76,5.808 L3.76,4.656 L2.688,4.656 L2.688,0 L1.64,0 C1.224,0.256 0.808,0.416 0.168,0.544 L0.168,1.424 L1.264,1.424 L1.264,4.656 L0,4.656 L0,5.808 Z" id="Path"></path>
                <path d="M6.29458284,5.92 C7.53458284,5.92 8.19058284,5.272 8.19058284,4.432 C8.19058284,3.608 7.55858284,3.28 6.99058284,3.064 C6.51858284,2.896 6.12658284,2.792 6.12658284,2.52 C6.12658284,2.304 6.27858284,2.192 6.60658284,2.192 C6.90258284,2.192 7.22258284,2.344 7.55058284,2.576 L8.18258284,1.728 C7.79858284,1.432 7.27058284,1.144 6.55858284,1.144 C5.49458284,1.144 4.79858284,1.728 4.79858284,2.584 C4.79858284,3.344 5.41458284,3.712 5.95858284,3.928 C6.42258284,4.112 6.86258284,4.24 6.86258284,4.512 C6.86258284,4.736 6.70258284,4.872 6.32658284,4.872 C5.96658284,4.872 5.59058284,4.704 5.17458284,4.392 L4.54258284,5.28 C5.00658284,5.664 5.70258284,5.92 6.29458284,5.92 Z" id="Path"></path>
            </g>
        </g>
    </g>
</svg>
